first trial
nRows=35
nColumns=38

# SIMM Motion File Header:
name Sujet_01_velo_60.mvnx
datacolumns 38
datarows 35
otherdata 1
range 0.0000 0.5660
endheader
time pelvis_tilt  pelvis_list  pelvis_rotation  pelvis_tx  pelvis_ty  pelvis_tz  hip_flexion_r  hip_adduction_r  hip_rotation_r  knee_angle_r  ankle_angle_r  subtalar_angle_r  mtp_angle_r  hip_flexion_l  hip_adduction_l  hip_rotation_l  knee_angle_l  ankle_angle_l  subtalar_angle_l  mtp_angle_l  lumbar_extension  lumbar_bending  lumbar_rotation  arm_flex_r  arm_add_r  arm_rot_r  elbow_flex_r  pro_sup_r  wrist_flex_r  wrist_dev_r  arm_flex_l  arm_add_l  arm_rot_l  elbow_flex_l  pro_sup_l  wrist_flex_l  wrist_dev_l
0.0000	14.4200	0.5116	-16.7975	0.0000	1.2500	-0.0000	42.3239	-13.2702	-6.2730	91.4701	-9.2484	-9.9634	-0.0000	34.8087	-19.3563	-20.8295	53.9630	-8.3323	13.8791	-0.0000	-11.9894	1.7727	-2.3037	8.7493	-12.3862	3.9856	47.2700	123.5846	-10.6433	16.9557	-1.3441	-4.3848	6.6701	54.1354	116.1253	-21.4264	14.8847	
0.0160	14.5374	0.1799	-16.8420	0.0000	1.2500	-0.0000	43.9207	-12.7718	-5.7236	93.6934	-7.1030	-9.8769	-0.0000	32.1407	-18.9291	-21.3178	51.0702	-9.6211	14.8842	-0.0000	-11.8451	1.9483	-2.5175	7.8746	-12.7034	3.5179	49.1456	121.9448	-10.5331	16.2480	-0.4888	-4.3892	6.9448	50.9480	114.3330	-20.6392	14.0380	
0.0330	14.6552	-0.1518	-16.8859	0.0000	1.2500	-0.0000	45.5119	-12.2630	-5.1981	95.9196	-4.9539	-9.8272	-0.0000	29.4799	-18.4879	-21.7989	48.1782	-10.8967	15.8769	-0.0000	-11.7016	2.1231	-2.7329	7.0014	-13.0324	3.0518	51.0383	120.2055	-10.4388	15.5403	0.3671	-4.4003	7.2171	47.7662	112.4928	-19.8211	13.2091	
0.0500	14.6829	-0.4317	-16.9914	0.0000	1.2500	-0.0000	47.2467	-11.8035	-4.6474	97.9207	-2.7288	-10.2152	-0.0000	26.9533	-18.1745	-22.4492	45.4926	-12.1644	16.7392	-0.0000	-11.5537	2.2744	-2.9299	6.2838	-13.3403	2.6395	52.7067	118.7283	-10.4118	15.0156	1.0277	-4.4771	7.4287	44.8910	110.7710	-18.9162	12.4625	
0.0660	14.5585	-0.6295	-17.2094	0.0000	1.2500	-0.0000	49.2457	-11.4073	-4.0031	99.6960	-0.1048	-11.3870	-0.0000	24.5616	-18.0551	-23.4185	43.0046	-13.5555	17.4202	0.0000	-11.3879	2.3902	-3.0941	5.7869	-13.6044	2.2477	54.0093	117.6530	-10.3840	14.7156	1.4155	-4.6782	7.5504	42.3799	109.0892	-17.8194	11.8176	
0.0830	14.3446	-0.7764	-17.4902	0.0000	1.2500	-0.0000	51.3886	-11.0469	-3.3351	101.2389	2.6012	-12.9848	0.0000	22.2993	-18.0252	-24.5751	40.7253	-14.9352	17.9615	-0.0000	-11.2174	2.4841	-3.2388	5.4456	-13.8393	1.9084	55.0721	116.8971	-10.4000	14.5965	1.6041	-4.9404	7.6163	40.1833	107.5537	-16.6491	11.2627	
0.1000	14.1381	-0.9112	-17.7457	0.0000	1.2500	-0.0000	53.4639	-10.7266	-2.7962	102.3127	4.4965	-14.3408	0.0000	20.2859	-17.9816	-25.6720	38.8884	-15.9185	18.4016	0.0000	-11.0769	2.5711	-3.3851	5.2191	-14.0654	1.7707	56.0481	116.5158	-10.6721	14.7134	1.6256	-5.1373	7.6618	38.4267	106.6051	-15.6915	10.7986	
0.1160	13.9632	-1.0349	-17.9697	0.0000	1.2500	-0.0000	55.4536	-10.4574	-2.4763	102.7710	5.0664	-15.2107	-0.0000	18.5227	-17.9066	-26.6818	37.5393	-16.3108	18.7437	0.0000	-10.9807	2.6547	-3.5435	5.1234	-14.2935	1.9683	56.9782	116.6772	-11.3880	15.2376	1.4363	-5.2126	7.6826	37.1809	106.5867	-15.0817	10.4062	
0.1330	13.7954	-1.1461	-18.1683	0.0000	1.2500	-0.0000	57.3786	-10.2444	-2.2745	102.7650	4.8192	-15.8210	0.0000	17.0067	-17.8418	-27.6271	36.6260	-16.3223	19.0072	0.0000	-10.9143	2.7309	-3.7032	5.1437	-14.5083	2.3682	57.8160	117.2512	-12.3538	15.9920	1.0835	-5.2159	7.6802	36.3530	107.1530	-14.6944	10.0801	
0.1500	13.6590	-1.2790	-18.2722	0.0000	1.2500	-0.0000	59.0875	-10.0923	-2.0482	102.5047	4.4022	-16.2226	0.0000	15.8517	-17.8107	-28.3287	36.2347	-16.1776	19.2655	-0.0000	-10.8693	2.8021	-3.8534	5.1938	-14.6938	2.7199	58.5897	117.8281	-13.2252	16.5188	0.7382	-5.1844	7.6986	35.8176	107.7089	-14.4241	9.8310	
0.1660	13.5633	-1.4614	-18.2219	0.0000	1.2500	-0.0000	60.5723	-10.0383	-1.7070	102.0507	3.8917	-16.3367	0.0000	15.1157	-17.8573	-28.7188	36.4266	-15.9013	19.5691	0.0000	-10.8534	2.8769	-4.0097	5.2711	-14.8571	2.9526	59.3633	118.3863	-13.9527	16.6266	0.4431	-5.1095	7.8069	35.5983	108.0342	-14.2804	9.6659	
0.1830	13.4981	-1.6648	-18.0769	0.0000	1.2500	-0.0000	61.8435	-10.0467	-1.3252	101.3422	3.2150	-16.2533	0.0000	14.7363	-17.9670	-28.8651	37.1407	-15.4686	19.8648	-0.0000	-10.8587	2.9465	-4.1565	5.3767	-14.9907	3.1366	60.0727	118.9445	-14.6076	16.5193	0.1559	-5.0035	7.9366	35.6731	108.3611	-14.2570	9.5745	
0.2000	13.4604	-1.8382	-17.9474	0.0000	1.2500	-0.0000	62.7759	-10.0103	-1.0113	100.4058	2.7986	-16.2805	0.0000	14.6455	-18.0779	-28.7906	38.2848	-15.0275	20.0695	0.0000	-10.8540	2.9869	-4.2368	5.4284	-15.0579	3.2325	60.5570	119.1454	-15.0273	16.3333	-0.0813	-4.9392	7.9247	35.8535	108.7751	-14.2240	9.5455	
0.2160	13.4511	-1.9695	-17.8705	0.0000	1.2500	-0.0000	63.3146	-9.8737	-0.7663	99.2087	2.8098	-16.5948	0.0000	14.8777	-18.1697	-28.4438	39.9420	-14.5706	20.1515	0.0000	-10.8239	2.9927	-4.2184	5.3629	-15.0432	3.1573	60.7750	118.7062	-15.0378	16.0662	-0.2261	-4.9466	7.6796	36.0484	109.2811	-14.1545	9.5861	
0.2330	13.4696	-2.0712	-17.8087	0.0000	1.2500	-0.0000	63.5143	-9.6955	-0.5912	97.7827	3.0851	-17.0237	0.0000	15.3995	-18.2571	-27.8728	42.0451	-14.1072	20.1430	-0.0000	-10.7835	2.9693	-4.1338	5.2420	-14.9628	2.9938	60.7725	117.9160	-14.8052	15.7165	-0.3205	-4.9977	7.2925	36.3479	109.8695	-14.0761	9.6886	
0.2500	13.5115	-2.1299	-17.7598	0.0000	1.2500	-0.0000	63.4146	-9.5407	-0.5987	96.2530	3.5528	-17.3443	0.0000	16.0407	-18.3298	-27.2505	44.2722	-13.8105	20.0630	-0.0000	-10.7477	2.9082	-4.0224	5.1710	-14.8288	2.9514	60.5117	117.2813	-14.6702	15.4178	-0.4487	-5.0770	6.8737	36.8396	110.6002	-13.9408	9.8183	
0.2660	13.5787	-2.1384	-17.7228	0.0000	1.2500	-0.0000	62.9942	-9.4277	-0.8365	94.6640	4.2281	-17.4697	-0.0000	16.7663	-18.3829	-26.6417	46.5357	-13.7771	19.8726	-0.0000	-10.7203	2.8038	-3.8874	5.1879	-14.6396	3.0995	59.9351	116.9308	-14.7895	15.2160	-0.6317	-5.1804	6.4220	37.5860	111.5548	-13.7106	9.9550	
0.2830	13.6697	-2.1037	-17.6990	0.0000	1.2500	-0.0000	62.2757	-9.3343	-1.2554	92.9725	5.0912	-17.4695	-0.0000	17.6115	-18.4166	-25.9828	48.9220	-13.9158	19.6184	0.0000	-10.6976	2.6620	-3.7255	5.2564	-14.3965	3.3677	59.0959	116.7201	-15.0067	15.0617	-0.8468	-5.3122	5.9376	38.5286	112.6446	-13.4214	10.1157	
0.3000	13.7748	-2.0331	-17.6889	0.0000	1.2500	-0.0000	61.3643	-9.2643	-1.8243	91.1747	6.0164	-17.3605	-0.0000	18.5109	-18.4339	-25.2562	51.3633	-14.1140	19.4465	0.0000	-10.6827	2.4920	-3.5660	5.3704	-14.1159	3.7551	58.1152	116.7466	-15.1980	14.9462	-1.1131	-5.4679	5.5330	39.5774	113.6835	-13.1374	10.3230	
0.3160	13.9013	-1.9042	-17.7203	0.0000	1.2500	-0.0000	60.2713	-9.2103	-2.6154	89.3094	7.0995	-17.1074	0.0000	19.4363	-18.4288	-24.4119	53.8304	-14.4097	19.4301	0.0000	-10.6782	2.2842	-3.4113	5.5193	-13.7781	4.3019	57.0250	117.2154	-15.3369	14.9598	-1.4612	-5.6435	5.2758	40.7335	114.5813	-12.8776	10.6107	
0.3330	14.0418	-1.7389	-17.7661	0.0000	1.2500	-0.0000	58.9854	-9.1684	-3.5570	87.3375	8.2433	-16.7594	-0.0000	20.4160	-18.4019	-23.5021	56.3557	-14.7578	19.4905	0.0000	-10.6816	2.0483	-3.2589	5.7131	-13.4013	4.9660	55.8004	117.8876	-15.4618	15.0109	-1.8615	-5.8432	5.0961	41.9963	115.4353	-12.6194	10.9452	
0.3500	14.1667	-1.6116	-17.7449	0.0000	1.2500	-0.0000	57.5784	-9.1521	-4.4051	85.1387	9.0330	-16.4652	-0.0000	21.4699	-18.3690	-22.6601	58.9678	-14.9198	19.5470	0.0000	-10.6889	1.8219	-3.1313	5.9764	-13.0589	5.6228	54.4665	118.2214	-15.5373	14.8257	-2.2437	-6.0742	4.9005	43.2728	116.3421	-12.3668	11.2500	
0.3660	14.2664	-1.5581	-17.6237	0.0000	1.2500	-0.0000	56.0814	-9.1730	-5.0559	82.6814	9.3735	-16.3498	-0.0000	22.5723	-18.3421	-21.9630	61.6618	-14.7820	19.5478	-0.0000	-10.7005	1.6228	-3.0368	6.3429	-12.7809	6.2222	53.0082	117.9610	-15.4987	14.2714	-2.5828	-6.3570	4.6498	44.5328	117.3864	-12.1252	11.4733	
0.3830	14.3506	-1.5432	-17.4352	0.0000	1.2500	-0.0000	54.4622	-9.2188	-5.6200	79.9981	9.3615	-16.2840	0.0000	23.7482	-18.3091	-21.3343	64.4479	-14.4606	19.5457	-0.0000	-10.7166	1.4330	-2.9674	6.7795	-12.5378	6.8128	51.4312	117.3754	-15.3932	13.4936	-2.9032	-6.6701	4.3830	45.8078	118.4805	-11.8896	11.6686	
0.4000	14.4178	-1.5335	-17.1950	0.0000	1.2500	-0.0000	52.6978	-9.2709	-6.1768	77.0648	8.8680	-16.0295	0.0000	25.0927	-18.2477	-20.6783	67.3836	-14.0654	19.6223	0.0000	-10.7333	1.2364	-2.9220	7.2114	-12.3137	7.4189	49.7836	116.7314	-15.3454	12.6335	-3.2074	-6.9570	4.1257	47.0980	119.4598	-11.6502	11.9170	
0.4160	14.4608	-1.5385	-16.8998	0.0000	1.2500	-0.0000	50.7840	-9.3154	-6.7232	73.8181	7.7647	-15.4018	0.0000	26.6115	-18.1331	-20.0283	70.5259	-13.5229	19.8348	-0.0000	-10.7470	1.0333	-2.9088	7.6362	-12.1075	8.0876	48.0414	116.0232	-15.4182	11.6299	-3.5043	-7.1987	3.8534	48.3785	120.2628	-11.3439	12.2493	
0.4330	14.4867	-1.5488	-16.5530	0.0000	1.2500	-0.0000	48.7248	-9.3584	-7.2690	70.3205	6.1702	-14.5813	-0.0000	28.2960	-17.9796	-19.3585	73.8388	-12.9085	20.1227	-0.0000	-10.7621	0.8235	-2.9198	8.0574	-11.9179	8.7716	46.2308	115.2657	-15.5403	10.5378	-3.7853	-7.4134	3.5909	49.6735	120.9546	-11.0338	12.6326	
0.4500	14.5156	-1.5041	-16.1832	0.0000	1.2500	-0.0000	46.5115	-9.4062	-7.9140	66.7363	4.3300	-13.8774	0.0000	30.2207	-17.8112	-18.4884	77.2224	-12.5512	20.4011	0.0000	-10.7867	0.5902	-2.9295	8.4087	-11.7323	9.3555	44.4717	114.7514	-15.6509	9.6657	-4.0270	-7.6009	3.4381	51.0558	121.5609	-10.8990	13.0571	
0.4660	14.5475	-1.3733	-15.8006	0.0000	1.2500	-0.0000	44.1216	-9.4399	-8.7325	63.0539	2.2464	-13.4389	-0.0000	32.4581	-17.6089	-17.3111	80.7017	-12.6085	20.6824	0.0000	-10.8275	0.3218	-2.9270	8.6634	-11.5313	9.8209	42.8107	114.6536	-15.7726	9.1745	-4.1934	-7.7449	3.5062	52.5229	122.0411	-11.0366	13.5445	
0.4830	14.5839	-1.1876	-15.3952	0.0000	1.2500	-0.0000	41.5803	-9.4604	-9.6607	59.2838	-0.0742	-13.1189	0.0000	34.9353	-17.3532	-15.9506	84.2152	-12.9129	20.9531	0.0000	-10.8787	0.0303	-2.9234	8.8480	-11.3382	10.1891	41.2002	114.7963	-15.8969	8.8988	-4.3221	-7.8639	3.6858	54.0774	122.4372	-11.3454	14.0823	
0.5000	14.6476	-0.9807	-14.9642	0.0000	1.2500	-0.0000	38.9477	-9.5075	-10.5933	55.6242	-2.3736	-12.7884	-0.0000	37.5108	-17.0694	-14.5696	87.5129	-13.3097	21.0984	0.0000	-10.9284	-0.2656	-2.9263	8.9741	-11.2058	10.4046	39.6173	114.9540	-15.9215	8.6633	-4.4982	-8.0103	3.7461	55.8001	122.8868	-11.7080	14.6134	
0.5160	14.7553	-0.7599	-14.4965	0.0000	1.2500	-0.0000	36.1939	-9.6104	-11.5272	52.1119	-4.5930	-12.4330	-0.0000	40.1918	-16.7653	-13.2043	90.5302	-13.8559	21.0582	-0.0000	-10.9746	-0.5635	-2.9393	9.0449	-11.1697	10.4401	38.0515	115.0623	-15.7743	8.4260	-4.7557	-8.1952	3.5961	57.7715	123.4898	-12.0573	15.1170	
0.5330	14.8910	-0.5188	-14.0035	0.0000	1.2500	-0.0000	33.3450	-9.7330	-12.4806	48.7119	-6.7877	-12.0771	-0.0000	42.9710	-16.4217	-11.8298	93.3180	-14.5046	20.8917	0.0000	-11.0200	-0.8658	-2.9582	9.0536	-11.1940	10.3240	36.5160	115.2091	-15.5251	8.2385	-5.0584	-8.4069	3.3253	59.9121	124.1111	-12.4579	15.6203	
0.5500	15.0276	-0.2704	-13.5171	0.0000	1.2500	-0.0000	30.5436	-9.8336	-13.3735	45.5155	-8.8731	-11.6427	0.0000	45.6880	-16.0478	-10.5035	95.8099	-14.9508	20.6785	0.0000	-11.0593	-1.1608	-2.9786	8.9969	-11.2241	10.0838	35.0239	115.4008	-15.2787	8.0674	-5.3849	-8.6622	2.9736	62.0618	124.5277	-12.9926	16.1420	
0.5660	15.1716	-0.0215	-13.0414	0.0000	1.2500	-0.0000	27.7816	-9.9171	-14.1677	42.5079	-10.8654	-11.0228	-0.0000	48.3179	-15.6565	-9.2410	98.0099	-15.1212	20.4568	0.0000	-11.0916	-1.4425	-2.9979	8.8393	-11.2591	9.6393	33.5953	115.6991	-15.0613	7.9037	-5.7293	-8.9742	2.5149	64.2045	124.6214	-13.7169	16.7325	
